<?xml version="1.0" standalone="no"?>
<!DOCTYPE svg PUBLIC "-//W3C//DTD SVG 1.1//EN" "http://www.w3.org/Graphics/SVG/1.1/DTD/svg11.dtd" >
<svg xmlns="http://www.w3.org/2000/svg" xmlns:xlink="http://www.w3.org/1999/xlink" version="1.1">
<metadata>
Created by FontForge 20170910 at Sat May 28 10:47:19 2005
 By Jimmy Wärting
Copr. 1993 Red Rooster Typefounders
</metadata>
<defs>
<font id="PhosphateSolid" horiz-adv-x="567" >
  <font-face 
    font-family="PhosphateSolid"
    font-weight="500"
    font-stretch="normal"
    units-per-em="1000"
    panose-1="2 0 6 6 2 0 0 2 0 4"
    ascent="800"
    descent="-200"
    x-height="390"
    cap-height="667"
    bbox="-27 -282 987 834"
    underline-thickness="113"
    underline-position="278"
    unicode-range="U+0020-FB02"
  />
<missing-glyph horiz-adv-x="333" 
 />
    <glyph glyph-name=".notdef" horiz-adv-x="333" 
 />
    <glyph glyph-name=".null" horiz-adv-x="0" 
 />
    <glyph glyph-name="nonmarkingreturn" horiz-adv-x="200" 
 />
    <glyph glyph-name="space" unicode=" " horiz-adv-x="200" 
 />
    <glyph glyph-name="space" unicode="&#xa0;" horiz-adv-x="200" 
 />
    <glyph glyph-name="dollar" unicode="$" horiz-adv-x="455" 
d="M387 663q-26 8 -54.5 12t-67.5 5v53h-97v-60q-72 -15 -110 -54t-38 -97q0 -35 13 -69t43 -77q8 -11 20.5 -28t29.5 -41q25 -35 34 -52t9 -31q0 -34 -63 -34q-22 0 -51 2.5t-48 7.5v-193q38 -9 76 -13.5t85 -6.5v-54h97v61q21 4 35 8t31 10q55 21 86.5 64t31.5 98
q0 29 -11 63.5t-31 65.5q-10 14 -21.5 30.5t-25.5 34.5t-24.5 30.5t-16.5 20.5l-12 18q-5 10 -5 17q0 14 13 22.5t35 8.5q5 0 12.5 -0.5t17.5 -0.5l7 -1v180z" />
    <glyph glyph-name="percent" unicode="%" horiz-adv-x="664" 
d="M20 492q0 -91 39.5 -142.5t108.5 -51.5q70 0 109.5 51.5t39.5 142.5q0 92 -39.5 143.5t-109.5 51.5q-69 0 -108.5 -51.5t-39.5 -143.5zM347 171q0 -91 39 -142.5t109 -51.5t109.5 51t39.5 143q0 91 -39.5 142.5t-109.5 51.5t-109 -51.5t-39 -142.5zM160 0h60l287 667h-60
zM134 492q0 88 34 88q35 0 35 -88t-34 -88q-35 0 -35 88zM460 171q0 88 34 88q36 0 36 -88t-34 -88q-36 0 -36 88z" />
    <glyph glyph-name="ampersand" unicode="&#x26;" horiz-adv-x="693" 
d="M693 199l-134 114l-49 -54l-78 65q5 5 8 9t5 6q19 20 31 33.5t19.5 25t11.5 22t7 23.5q5 22 5 41q0 43 -17 80t-47 63t-71.5 41t-90.5 15q-47 0 -87 -14t-69 -39.5t-45.5 -60.5t-16.5 -76q0 -28 8 -56.5t22 -48.5q3 -4 8.5 -10.5t14.5 -17.5q2 -3 5 -7t8 -10
q-54 -33 -81 -74.5t-27 -87.5q0 -45 19 -81.5t54.5 -62.5t85 -40t110.5 -14q58 0 112.5 13.5t99.5 39.5q16 9 34.5 22t37 28t36 31t31.5 32q8 8 17.5 20.5t22.5 29.5zM280 233l78 -65q-23 -11 -51 -11q-26 0 -43 11.5t-17 28.5q0 22 33 36zM298 430q-23 20 -31 34t-8 29
q0 16 11 26t28 10q42 0 42 -39q0 -15 -9 -27.5t-33 -32.5z" />
    <glyph glyph-name="quotesingle" unicode="'" horiz-adv-x="221" 
d="M27 428h48l101 166q5 9 8.5 19t3.5 18q0 23 -16 37.5t-41 14.5q-46 0 -58 -51z" />
    <glyph glyph-name="parenleft" unicode="(" horiz-adv-x="355" 
d="M168 -100h187q-13 28 -22 48.5t-16 39t-13 37t-13 42.5q-38 134 -38 266q0 133 38 267q7 24 13 42.5t13 37t16 39t22 48.5h-187q-13 -28 -22 -48.5t-15.5 -39t-12.5 -37t-13 -42.5q-20 -66 -29 -132.5t-9 -134.5q0 -67 9 -133.5t29 -132.5q7 -24 13 -42.5t12.5 -37
t15.5 -39t22 -48.5z" />
    <glyph glyph-name="parenright" unicode=")" horiz-adv-x="355" 
d="M187 -100q13 28 22 48.5t15.5 39t12.5 37t13 42.5q38 134 38 266q0 133 -38 267q-7 24 -13 42.5t-12.5 37t-15.5 39t-22 48.5h-187q13 -28 22 -48.5t15.5 -39t12.5 -37t13 -42.5q20 -66 29 -132.5t9 -134.5q0 -67 -9 -133.5t-29 -132.5q-7 -24 -13 -42.5t-12.5 -37
t-15.5 -39t-22 -48.5h187z" />
    <glyph glyph-name="asterisk" unicode="*" horiz-adv-x="296" 
d="M124 667v-86l-74 43l-23 -41l74 -43l-74 -43l23 -41l74 43v-86h48v86l74 -43l24 41l-74 43l74 43l-24 41l-74 -43v86h-48z" />
    <glyph glyph-name="plus" unicode="+" horiz-adv-x="587" 
d="M40 200h201v-200h106v200h200v107h-200v200h-107v-200h-200v-107z" />
    <glyph glyph-name="comma" unicode="," horiz-adv-x="277" 
d="M0 -103h170l87 270h-190z" />
    <glyph glyph-name="hyphen" unicode="-" horiz-adv-x="307" 
d="M40 250h227v167h-227v-167z" />
    <glyph glyph-name="period" unicode="." horiz-adv-x="280" 
d="M33 0h214v167h-214v-167z" />
    <glyph glyph-name="slash" unicode="/" horiz-adv-x="347" 
d="M0 0h60l287 667h-60z" />
    <glyph glyph-name="zero" unicode="0" horiz-adv-x="580" 
d="M20 333q0 -50 8 -96.5t23 -86t36.5 -71t48.5 -52.5q30 -23 69.5 -35t84.5 -12q179 0 241 177q29 84 29 176q0 101 -31 182.5t-85 123.5q-30 23 -69.5 35t-84.5 12q-181 0 -241 -176q-29 -87 -29 -177zM226 333q0 160 63 160q33 0 48.5 -39t15.5 -121q0 -160 -62 -160
q-65 0 -65 160z" />
    <glyph glyph-name="one" unicode="1" horiz-adv-x="317" 
d="M67 0h213v667h-160l-140 -147l87 -113v-407z" />
    <glyph glyph-name="two" unicode="2" horiz-adv-x="443" 
d="M-20 0h390l59 180h-126l10 17q29 49 49 87.5t32 70t17.5 58.5t5.5 54q0 65 -34.5 117t-91.5 73q-55 20 -136 20q-15 0 -26.5 -0.5t-22 -1.5t-21.5 -3t-25 -5v-184h40q39 0 61 -17t22 -47q0 -11 -1 -20t-5 -20t-10.5 -25t-16.5 -34l-33 -63l-29 -55z" />
    <glyph glyph-name="three" unicode="3" horiz-adv-x="383" 
d="M0 -7q18 -1 31 -1h24q41 0 81.5 5t70.5 13q36 11 67 32q99 65 99 195q0 52 -17 91t-60 83q24 30 34 56t10 57q0 72 -53 111.5t-151 39.5q-15 0 -26.5 -0.5t-22.5 -1t-24 -2t-30 -4.5v-147h5q33 0 51 -12t18 -34t-17.5 -45.5t-56.5 -53.5q6 -4 8 -5q12 -8 20 -13.5
t11 -7.5q13 -9 30 -26q35 -37 35 -70q0 -35 -35 -54t-98 -19h-4v-187z" />
    <glyph glyph-name="four" unicode="4" horiz-adv-x="507" 
d="M-7 93h260v-93h207v93h40v187h-40v387h-178l-289 -520v-54zM165 197l88 160v-160h-88z" />
    <glyph glyph-name="five" unicode="5" horiz-adv-x="417" 
d="M7 -13h15q49 0 85.5 2t65 7t51.5 13.5t45 20.5q124 70 124 225q0 152 -126 225h133v187h-277l-123 -280l4 -2q40 -13 59.5 -20.5t36.5 -17.5q48 -26 48 -76q0 -45 -35 -69.5t-100 -24.5h-6v-190z" />
    <glyph glyph-name="six" unicode="6" horiz-adv-x="543" 
d="M332 486q22 32 37.5 54t30.5 40.5t32 38.5t43 48h-256q-29 -35 -49.5 -60.5t-36.5 -46.5t-28 -39.5t-23 -38.5q-66 -116 -66 -229q0 -58 19.5 -107.5t54 -85.5t81.5 -56.5t102 -20.5q53 0 100 20t82 55t55 81.5t20 99.5q0 33 -9 66t-25 62t-38 53t-48 38q-22 13 -78 28z
M213 240q0 25 17.5 42.5t42.5 17.5t42.5 -17.5t17.5 -42.5t-17.5 -42.5t-42.5 -17.5t-42.5 17.5t-17.5 42.5z" />
    <glyph glyph-name="seven" unicode="7" horiz-adv-x="463" 
d="M-7 0h224l263 667h-407l-66 -187h176z" />
    <glyph glyph-name="eight" unicode="8" horiz-adv-x="507" 
d="M71 389q-64 -58 -64 -158q0 -51 19.5 -96.5t52.5 -79t78 -53t96 -19.5t96 19.5t78.5 53t53 79t19.5 96.5q0 28 -2.5 48t-9.5 37t-19.5 34t-32.5 38q8 14 13 24.5t8 20.5t4 21t1 26q0 41 -17 78t-45.5 64.5t-66.5 44t-80 16.5q-43 0 -80.5 -16.5t-66 -44.5t-45 -65.5
t-16.5 -79.5q0 -14 1 -25t4 -20.5t8 -19.5t13 -23zM200 230q0 22 15.5 37.5t37.5 15.5q23 0 38.5 -15.5t15.5 -37.5t-15.5 -37.5t-38.5 -15.5q-22 0 -37.5 15.5t-15.5 37.5zM213 475q0 17 11.5 28.5t28.5 11.5t28.5 -11.5t11.5 -28.5t-11.5 -28.5t-28.5 -11.5t-28.5 11.5
t-11.5 28.5z" />
    <glyph glyph-name="nine" unicode="9" horiz-adv-x="540" 
d="M212 181q-23 -32 -38.5 -54t-30.5 -41t-32.5 -38.5t-42.5 -47.5h256q29 34 49.5 60t36.5 47t28 39t23 38q66 117 66 230q0 58 -19.5 107t-54 85t-81.5 56.5t-102 20.5q-53 0 -99.5 -20t-81.5 -55t-55.5 -81.5t-20.5 -99.5q0 -33 9 -65.5t25 -61.5t38 -52.5t48 -38.5
q23 -13 79 -28zM330 427q0 -25 -17.5 -42.5t-42.5 -17.5t-42.5 17.5t-17.5 42.5t17.5 42.5t42.5 17.5t42.5 -17.5t17.5 -42.5z" />
    <glyph glyph-name="colon" unicode=":" horiz-adv-x="307" 
d="M47 0h213v167h-213v-167zM47 310h213v167h-213v-167z" />
    <glyph glyph-name="semicolon" unicode=";" horiz-adv-x="277" 
d="M43 310h214v167h-214v-167zM0 -103h170l87 270h-190z" />
    <glyph glyph-name="less" unicode="&#x3c;" 
d="M283 343l-47 47l-9 -10l47 -47l-47 -47l9 -9l47 47l47 -47l10 9l-47 47l47 47l-10 10z" />
    <glyph glyph-name="equal" unicode="=" horiz-adv-x="587" 
d="M40 282h507v107h-507v-107zM547 224h-507v-106h507v106z" />
    <glyph glyph-name="greater" unicode="&#x3e;" 
d="M283 343l-47 47l-9 -10l47 -47l-47 -47l9 -9l47 47l47 -47l10 9l-47 47l47 47l-10 10z" />
    <glyph glyph-name="question" unicode="?" horiz-adv-x="438" 
d="M80 197h213q4 23 7.5 35t10.5 28q4 9 7.5 16t8.5 16.5t13.5 23.5t22.5 37q12 20 20.5 35.5t13 30t6.5 28.5t2 31q0 46 -18 84t-50.5 65t-79 41.5t-103.5 14.5q-13 0 -23.5 -0.5t-21.5 -1.5t-24.5 -3t-31.5 -5v-186h8q18 0 29.5 -0.5t20 -1.5t14.5 -2.5t13 -4.5
q14 -6 23 -20t9 -30q0 -9 -1.5 -17.5t-6 -18t-12 -21t-19.5 -27.5q-15 -21 -24.5 -37.5t-15.5 -33t-8.5 -34.5t-2.5 -42zM80 0h213v167h-213v-167z" />
    <glyph glyph-name="at" unicode="@" horiz-adv-x="885" 
d="M702 35l-23 44q-25 -13 -39 -19t-33 -13q-64 -23 -127 -23q-70 0 -130.5 24.5t-105.5 67.5t-70.5 101.5t-25.5 125.5q0 68 23.5 124.5t66.5 97.5t102 64t130 23t129 -22t99.5 -62t64.5 -96t23 -124q0 -34 -8.5 -62.5t-23.5 -48.5t-36 -31.5t-46 -11.5q-29 0 -49 21
t-20 50q0 3 0.5 6t0.5 7l37 252h-100l-2 -20q-23 10 -36.5 13.5t-35.5 3.5q-42 0 -78.5 -18t-63.5 -48.5t-42.5 -72t-15.5 -88.5q0 -69 36 -111t95 -42q39 0 69.5 18t56.5 56q39 -79 130 -79q44 0 80.5 16t62.5 45.5t40.5 70t14.5 89.5q0 78 -28 142t-79.5 109.5t-124.5 70
t-162 24.5q-90 0 -165.5 -27.5t-130 -77t-85 -117.5t-30.5 -149q0 -80 30.5 -148t84.5 -117t128.5 -76.5t162.5 -27.5q68 0 129 16t120 50zM534 467l-18 -148q-5 -46 -26.5 -75t-50.5 -29q-30 0 -47.5 26t-17.5 74q0 35 8.5 66t23 54t34.5 36t43 13q14 0 24 -3.5t27 -13.5z
" />
    <glyph glyph-name="A" unicode="A" horiz-adv-x="640" 
d="M-13 0h210l22 60h202l22 -60h210l-253 667h-160zM275 207l45 117l45 -117h-90z" />
    <glyph glyph-name="B" unicode="B" horiz-adv-x="563" 
d="M37 0h286q53 0 95.5 14.5t72.5 42t46 66.5t16 87q0 57 -19 95t-61 62q50 53 50 122q0 39 -16.5 74t-47.5 60q-29 23 -62.5 33.5t-83.5 10.5h-276v-667zM243 157v116h14q86 0 86 -57q0 -31 -20.5 -45t-65.5 -14h-14zM243 417v93h14q32 0 46 -10.5t14 -34.5q0 -26 -14 -37
t-46 -11h-14z" />
    <glyph glyph-name="C" unicode="C" horiz-adv-x="639" 
d="M653 65l-118 185q-34 -30 -64.5 -43.5t-66.5 -13.5q-32 0 -59.5 11t-48.5 30t-33 44.5t-12 54.5t12 54.5t33 44.5t48.5 30t58.5 11q35 0 69 -14t56 -37l109 190q-29 19 -56 33t-55 22t-57.5 12t-63.5 4q-80 0 -150 -27.5t-122.5 -75t-82.5 -111t-30 -136.5q0 -72 30 -136
t82.5 -111.5t122.5 -75t150 -27.5q36 0 67.5 4.5t61.5 14.5t59 25.5t60 37.5z" />
    <glyph glyph-name="D" unicode="D" horiz-adv-x="637" 
d="M37 0h173q76 0 133.5 8t100 26t73 47.5t54.5 72.5q46 81 46 179q0 54 -14 103t-39 89.5t-59.5 69.5t-75.5 43q-85 29 -219 29h-173v-667zM253 190v287h7q32 0 59 -11t46.5 -30t30.5 -45.5t11 -57.5t-11 -57.5t-30.5 -45.5t-46.5 -29.5t-59 -10.5h-7z" />
    <glyph glyph-name="E" unicode="E" horiz-adv-x="463" 
d="M37 0h400v175h-187v77h177v166h-177v74h180v175h-393v-667z" />
    <glyph glyph-name="F" unicode="F" horiz-adv-x="450" 
d="M37 0h213v252h177v166h-177v74h180v175h-393v-667z" />
    <glyph glyph-name="G" unicode="G" horiz-adv-x="697" 
d="M677 165v222h-257v-140h60q-45 -54 -110 -54q-29 0 -54.5 11t-44.5 30t-30 44.5t-11 54.5t11 54.5t30 44.5t45 30t55 11q48 0 89 -33l120 173q-11 8 -19.5 13.5t-15 9.5t-13.5 7.5l-15 7.5q-32 15 -71 23.5t-77 8.5q-72 0 -135.5 -27.5t-111 -75t-75 -111.5t-27.5 -136
t27.5 -136t75 -111.5t111.5 -75t136 -27.5q97 0 177 47.5t130 134.5z" />
    <glyph glyph-name="H" unicode="H" horiz-adv-x="620" 
d="M37 0h213v247h120v-247h213v667h-213v-227h-120v227h-213v-667z" />
    <glyph glyph-name="I" unicode="I" horiz-adv-x="300" 
d="M37 0h226v667h-226v-667z" />
    <glyph glyph-name="J" unicode="J" horiz-adv-x="382" 
d="M0 0h159h49q50 0 84.5 21.5t45.5 58.5q4 13 5.5 26.5t2.5 27.5q0 12 0.5 35t0.5 58v440h-220v-431q0 -27 -3.5 -42t-11.5 -21q-15 -13 -37 -13h-22h-53v-160z" />
    <glyph glyph-name="K" unicode="K" horiz-adv-x="633" 
d="M37 0h213v206l141 -206h259l-248 362l235 305h-261l-126 -147v147h-213v-667z" />
    <glyph glyph-name="L" unicode="L" horiz-adv-x="443" 
d="M37 0h406v173h-186v494h-220v-667z" />
    <glyph glyph-name="M" unicode="M" horiz-adv-x="773" 
d="M37 0h213v240l137 -200l136 200v-240h214v667h-177l-173 -254l-174 254h-176v-667z" />
    <glyph glyph-name="N" unicode="N" horiz-adv-x="643" 
d="M37 0h210v256l183 -256h177v667h-210v-257l-184 257h-176v-667z" />
    <glyph glyph-name="O" unicode="O" horiz-adv-x="740" 
d="M20 333q0 -72 27.5 -136t75 -111.5t111.5 -75t136 -27.5t136 27.5t111.5 75t75 111.5t27.5 136q0 73 -27.5 136.5t-75 111t-111.5 75t-136 27.5t-136 -27.5t-111.5 -75t-75 -111t-27.5 -136.5zM230 333q0 29 11 54.5t30 44.5t44.5 30t54.5 11t54.5 -11t44.5 -30t30 -44.5
t11 -54.5t-11 -54.5t-30 -44.5t-44.5 -30t-54.5 -11t-54.5 11t-44.5 30t-30 44.5t-11 54.5z" />
    <glyph glyph-name="P" unicode="P" 
d="M37 0h210v160q58 1 101 7.5t75 20.5t55 36t41 54q17 30 25.5 64.5t8.5 70.5q0 40 -10 77t-29 67t-45 52.5t-58 33.5q-66 24 -164 24h-210v-667zM247 340v147q88 -1 88 -74q0 -72 -88 -73z" />
    <glyph glyph-name="Q" unicode="Q" horiz-adv-x="743" 
d="M678 167q13 25 21.5 44t13 37t6 38t1.5 47q0 73 -27.5 136.5t-75 111t-111.5 75t-136 27.5t-136 -27.5t-111.5 -75t-75 -111t-27.5 -136.5q0 -72 27.5 -136t75 -111.5t111.5 -75t137 -27.5q23 0 39 2t43 8h197l90 174h-62zM230 333q0 29 11 54.5t30 44.5t44.5 30t54.5 11
t54.5 -11t44.5 -30t30 -44.5t11 -54.5t-11 -54.5t-30 -44.5t-44.5 -30t-54.5 -11t-54.5 11t-44.5 30t-30 44.5t-11 54.5z" />
    <glyph glyph-name="R" unicode="R" horiz-adv-x="590" 
d="M37 0h213v164l108 -164h242l-125 220q13 11 21 18.5t14 14t11 12t10 13.5q18 26 28 60t10 69q0 57 -26.5 110.5t-71.5 89.5q-38 30 -86 45t-112 15h-236v-667zM250 340v147h7h3q22 0 31 -1.5t21 -8.5q17 -9 26.5 -26.5t9.5 -37.5t-9.5 -36.5t-26.5 -26.5q-12 -7 -21 -8.5
t-31 -1.5h-3h-7z" />
    <glyph glyph-name="S" unicode="S" horiz-adv-x="455" 
d="M7 7q38 -10 84 -15t87 -5q127 0 199 49.5t72 137.5q0 29 -11 63.5t-31 65.5q-10 14 -21.5 30.5t-25.5 34.5t-24.5 30.5t-16.5 20.5l-12 18q-5 10 -5 17q0 14 13 22.5t35 8.5q5 0 12.5 -0.5t17.5 -0.5l7 -1v180q-29 9 -61 13t-74 4q-110 0 -171 -41.5t-61 -116.5
q0 -35 13 -69t43 -77q8 -11 20.5 -28t29.5 -41q25 -35 34 -52t9 -31q0 -34 -63 -34q-22 0 -51 2.5t-48 7.5v-193z" />
    <glyph glyph-name="T" unicode="T" horiz-adv-x="467" 
d="M123 0h220v493h124v174h-467v-174h123v-493z" />
    <glyph glyph-name="U" unicode="U" horiz-adv-x="620" 
d="M33 667v-434q0 -55 20.5 -101t57 -79t87.5 -51.5t112 -18.5t111.5 18.5t87.5 51.5t57.5 79t20.5 101v434h-224v-385q0 -54 -12.5 -78t-40.5 -24t-40.5 24t-12.5 78v385h-224z" />
    <glyph glyph-name="V" unicode="V" horiz-adv-x="667" 
d="M-13 667l260 -667h173l260 667h-233l-114 -290l-113 290h-233z" />
    <glyph glyph-name="W" unicode="W" horiz-adv-x="880" 
d="M207 0h166l67 202l67 -202h166l220 667h-226l-77 -233l-77 233h-146l-77 -233l-77 233h-226z" />
    <glyph glyph-name="X" unicode="X" horiz-adv-x="587" 
d="M-13 0h233l73 133l74 -133h233l-190 345l177 322h-234l-60 -109l-60 109h-233l177 -322z" />
    <glyph glyph-name="Y" unicode="Y" horiz-adv-x="593" 
d="M190 0h213v287l207 380h-237l-76 -141l-77 141h-237l207 -380v-287z" />
    <glyph glyph-name="Z" unicode="Z" horiz-adv-x="520" 
d="M-23 0h463l73 190h-218l225 477h-427l-70 -180h184z" />
    <glyph glyph-name="bracketleft" unicode="[" horiz-adv-x="320" 
d="M67 -100h273v37h-87v793h87v37h-273v-867z" />
    <glyph glyph-name="backslash" unicode="\" horiz-adv-x="347" 
d="M347 0l-287 667h-60l287 -667h60z" />
    <glyph glyph-name="bracketright" unicode="]" horiz-adv-x="320" 
d="M253 -100v867h-273v-37h87v-793h-87v-37h273z" />
    <glyph glyph-name="asciicircum" unicode="^" 
d="M283 343l-47 47l-9 -10l47 -47l-47 -47l9 -9l47 47l47 -47l10 9l-47 47l47 47l-10 10z" />
    <glyph glyph-name="underscore" unicode="_" 
d="M283 343l-47 47l-9 -10l47 -47l-47 -47l9 -9l47 47l47 -47l10 9l-47 47l47 47l-10 10z" />
    <glyph glyph-name="grave" unicode="`" horiz-adv-x="246" 
d="M213 700l-35 111h-145l96 -111h84z" />
    <glyph glyph-name="a" unicode="a" 
d="M283 343l-47 47l-9 -10l47 -47l-47 -47l9 -9l47 47l47 -47l10 9l-47 47l47 47l-10 10z" />
    <glyph glyph-name="b" unicode="b" 
d="M283 343l-47 47l-9 -10l47 -47l-47 -47l9 -9l47 47l47 -47l10 9l-47 47l47 47l-10 10z" />
    <glyph glyph-name="c" unicode="c" 
d="M283 343l-47 47l-9 -10l47 -47l-47 -47l9 -9l47 47l47 -47l10 9l-47 47l47 47l-10 10z" />
    <glyph glyph-name="d" unicode="d" 
d="M283 343l-47 47l-9 -10l47 -47l-47 -47l9 -9l47 47l47 -47l10 9l-47 47l47 47l-10 10z" />
    <glyph glyph-name="e" unicode="e" 
d="M283 343l-47 47l-9 -10l47 -47l-47 -47l9 -9l47 47l47 -47l10 9l-47 47l47 47l-10 10z" />
    <glyph glyph-name="f" unicode="f" 
d="M283 343l-47 47l-9 -10l47 -47l-47 -47l9 -9l47 47l47 -47l10 9l-47 47l47 47l-10 10z" />
    <glyph glyph-name="g" unicode="g" 
d="M283 343l-47 47l-9 -10l47 -47l-47 -47l9 -9l47 47l47 -47l10 9l-47 47l47 47l-10 10z" />
    <glyph glyph-name="h" unicode="h" 
d="M283 343l-47 47l-9 -10l47 -47l-47 -47l9 -9l47 47l47 -47l10 9l-47 47l47 47l-10 10z" />
    <glyph glyph-name="i" unicode="i" 
d="M283 343l-47 47l-9 -10l47 -47l-47 -47l9 -9l47 47l47 -47l10 9l-47 47l47 47l-10 10z" />
    <glyph glyph-name="j" unicode="j" 
d="M283 343l-47 47l-9 -10l47 -47l-47 -47l9 -9l47 47l47 -47l10 9l-47 47l47 47l-10 10z" />
    <glyph glyph-name="k" unicode="k" horiz-adv-x="597" 
d="M37 0h213v218l186 -251l174 128l-203 274l183 182l-148 149l-192 -191v158h-213v-667z" />
    <glyph glyph-name="l" unicode="l" 
d="M283 343l-47 47l-9 -10l47 -47l-47 -47l9 -9l47 47l47 -47l10 9l-47 47l47 47l-10 10z" />
    <glyph glyph-name="m" unicode="m" 
d="M283 343l-47 47l-9 -10l47 -47l-47 -47l9 -9l47 47l47 -47l10 9l-47 47l47 47l-10 10z" />
    <glyph glyph-name="n" unicode="n" 
d="M283 343l-47 47l-9 -10l47 -47l-47 -47l9 -9l47 47l47 -47l10 9l-47 47l47 47l-10 10z" />
    <glyph glyph-name="o" unicode="o" 
d="M283 343l-47 47l-9 -10l47 -47l-47 -47l9 -9l47 47l47 -47l10 9l-47 47l47 47l-10 10z" />
    <glyph glyph-name="p" unicode="p" 
d="M283 343l-47 47l-9 -10l47 -47l-47 -47l9 -9l47 47l47 -47l10 9l-47 47l47 47l-10 10z" />
    <glyph glyph-name="q" unicode="q" 
d="M283 343l-47 47l-9 -10l47 -47l-47 -47l9 -9l47 47l47 -47l10 9l-47 47l47 47l-10 10z" />
    <glyph glyph-name="r" unicode="r" 
d="M283 343l-47 47l-9 -10l47 -47l-47 -47l9 -9l47 47l47 -47l10 9l-47 47l47 47l-10 10z" />
    <glyph glyph-name="s" unicode="s" 
d="M283 343l-47 47l-9 -10l47 -47l-47 -47l9 -9l47 47l47 -47l10 9l-47 47l47 47l-10 10z" />
    <glyph glyph-name="t" unicode="t" 
d="M283 343l-47 47l-9 -10l47 -47l-47 -47l9 -9l47 47l47 -47l10 9l-47 47l47 47l-10 10z" />
    <glyph glyph-name="u" unicode="u" 
d="M283 343l-47 47l-9 -10l47 -47l-47 -47l9 -9l47 47l47 -47l10 9l-47 47l47 47l-10 10z" />
    <glyph glyph-name="v" unicode="v" 
d="M283 343l-47 47l-9 -10l47 -47l-47 -47l9 -9l47 47l47 -47l10 9l-47 47l47 47l-10 10z" />
    <glyph glyph-name="w" unicode="w" 
d="M283 343l-47 47l-9 -10l47 -47l-47 -47l9 -9l47 47l47 -47l10 9l-47 47l47 47l-10 10z" />
    <glyph glyph-name="x" unicode="x" 
d="M283 343l-47 47l-9 -10l47 -47l-47 -47l9 -9l47 47l47 -47l10 9l-47 47l47 47l-10 10z" />
    <glyph glyph-name="y" unicode="y" horiz-adv-x="587" 
d="M183 0h220v281l197 277l-176 125l-131 -183l-130 183l-176 -125l196 -277v-281z" />
    <glyph glyph-name="z" unicode="z" 
d="M283 343l-47 47l-9 -10l47 -47l-47 -47l9 -9l47 47l47 -47l10 9l-47 47l47 47l-10 10z" />
    <glyph glyph-name="braceleft" unicode="{" horiz-adv-x="298" 
d="M298 -100v37q-38 2 -55.5 17.5t-17.5 48.5q0 8 2.5 27t6.5 51q2 16 3 31.5t1 30.5q0 87 -28.5 133.5t-92.5 66.5q34 11 57 25.5t37 35.5t20 49.5t6 67.5q0 17 -1.5 35t-3.5 35q-4 29 -6 45.5t-2 24.5q0 34 17 49.5t57 17.5v39h-16q-29 0 -50 -1.5t-36.5 -5t-27.5 -9
t-23 -13.5q-43 -33 -43 -98v-12t1 -12l9 -64q2 -14 3 -28.5t1 -28.5q0 -61 -19 -91.5t-64 -43.5v-36q44 -11 64 -44.5t20 -94.5q0 -20 -1.5 -39t-3.5 -38q-5 -41 -7.5 -60.5t-2.5 -28.5q0 -27 10.5 -52.5t27.5 -38.5q20 -16 48 -22.5t76 -6.5h13q6 0 21 1z" />
    <glyph glyph-name="bar" unicode="|" 
d="M283 343l-47 47l-9 -10l47 -47l-47 -47l9 -9l47 47l47 -47l10 9l-47 47l47 47l-10 10z" />
    <glyph glyph-name="braceright" unicode="}" horiz-adv-x="298" 
d="M0 -100q14 -1 20 -1h14q48 0 76 6.5t48 22.5q17 14 27 38.5t10 53.5q0 9 -2 27.5t-7 60.5q-2 19 -3.5 38t-1.5 39q0 61 19.5 94.5t63.5 44.5v36q-45 13 -63.5 43.5t-18.5 91.5q0 14 1 28.5t3 28.5l8 64q1 6 1.5 12t0.5 12q0 68 -44 98q-12 9 -24.5 14.5t-27.5 8.5
t-35.5 4.5t-49.5 1.5h-15v-39q39 -2 56 -17.5t17 -50.5q0 -7 -1.5 -23.5t-5.5 -45.5q-2 -17 -3.5 -35t-1.5 -35q0 -39 6 -67.5t19.5 -49.5t36.5 -35.5t57 -25.5q-64 -20 -92 -66.5t-28 -133.5q0 -15 1 -30.5t3 -31.5q9 -63 9 -78q0 -33 -17.5 -48.5t-55.5 -17.5v-37z" />
    <glyph glyph-name="asciitilde" unicode="~" 
d="M283 343l-47 47l-9 -10l47 -47l-47 -47l9 -9l47 47l47 -47l10 9l-47 47l47 47l-10 10z" />
    <glyph glyph-name="Adieresis" unicode="&#xc4;" horiz-adv-x="640" 
d="M-13 0h210l22 60h202l22 -60h210l-253 667h-160zM275 207l45 117l45 -117h-90zM175 700h110v103h-110v-103zM355 700h110v103h-110v-103z" />
    <glyph glyph-name="Aring" unicode="&#xc5;" horiz-adv-x="640" 
d="M-13 0h210l22 60h202l22 -60h210l-253 667h-160zM275 207l45 117l45 -117h-90zM236 750q0 -17 6.5 -32.5t18 -26.5t26.5 -17.5t33 -6.5q35 0 59 24t24 59t-24 59.5t-59 24.5q-18 0 -33 -6.5t-26.5 -18t-18 -27t-6.5 -32.5zM280 750q0 17 11.5 28.5t28.5 11.5t28.5 -11.5
t11.5 -28.5t-11.5 -28.5t-28.5 -11.5t-28.5 11.5t-11.5 28.5z" />
    <glyph glyph-name="Ccedilla" unicode="&#xc7;" horiz-adv-x="639" 
d="M267 -182q25 -5 37.5 -6.5t31.5 -1.5q48 0 79.5 21.5t31.5 54.5q0 51 -69 58l19 39h11q49 0 98 12t92 35q15 8 25.5 14.5t29.5 20.5l-118 185q-34 -30 -64.5 -43.5t-66.5 -13.5q-32 0 -59.5 11t-48.5 30t-33 44.5t-12 54.5t12 54.5t33 44.5t48.5 30t58.5 11q35 0 69 -14
t56 -37l109 190q-29 19 -56 33t-55 22t-57.5 12t-63.5 4q-80 0 -150 -27.5t-122.5 -75t-82.5 -111t-30 -136.5q0 -53 17 -103t48.5 -92t75.5 -75.5t99 -53.5q21 -8 37.5 -12t47.5 -9l-37 -76q9 1 13 1h10q16 0 26.5 -7.5t10.5 -18.5q0 -12 -12 -19.5t-31 -7.5q-10 0 -21 1.5
t-27 6.5z" />
    <glyph glyph-name="Eacute" unicode="&#xc9;" horiz-adv-x="463" 
d="M37 0h400v175h-187v77h177v166h-177v74h180v175h-393v-667zM167 700h84l96 111h-145z" />
    <glyph glyph-name="Ntilde" unicode="&#xd1;" horiz-adv-x="643" 
d="M37 0h210v256l183 -256h177v667h-210v-257l-184 257h-176v-667zM246 700q0 32 22 32q17 0 48 -13q22 -10 42 -14.5t37 -4.5q40 0 58.5 25.5t22.5 85.5h-69q-3 -33 -24 -33q-18 0 -43 12q-48 22 -79 22q-39 0 -60.5 -27.5t-21.5 -78.5v-6h67z" />
    <glyph glyph-name="Odieresis" unicode="&#xd6;" horiz-adv-x="740" 
d="M20 333q0 -72 27.5 -136t75 -111.5t111.5 -75t136 -27.5t136 27.5t111.5 75t75 111.5t27.5 136q0 73 -27.5 136.5t-75 111t-111.5 75t-136 27.5t-136 -27.5t-111.5 -75t-75 -111t-27.5 -136.5zM230 333q0 29 11 54.5t30 44.5t44.5 30t54.5 11t54.5 -11t44.5 -30t30 -44.5
t11 -54.5t-11 -54.5t-30 -44.5t-44.5 -30t-54.5 -11t-54.5 11t-44.5 30t-30 44.5t-11 54.5zM224 700h110v103h-110v-103zM404 700h110v103h-110v-103z" />
    <glyph glyph-name="Udieresis" unicode="&#xdc;" horiz-adv-x="620" 
d="M33 667v-434q0 -55 20.5 -101t57 -79t87.5 -51.5t112 -18.5t111.5 18.5t87.5 51.5t57.5 79t20.5 101v434h-224v-385q0 -54 -12.5 -78t-40.5 -24t-40.5 24t-12.5 78v385h-224zM164 700h110v103h-110v-103zM344 700h110v103h-110v-103z" />
    <glyph glyph-name="aacute" unicode="&#xe1;" 
d="M283 343l-47 47l-9 -10l47 -47l-47 -47l9 -9l47 47l47 -47l10 9l-47 47l47 47l-10 10z" />
    <glyph glyph-name="agrave" unicode="&#xe0;" 
d="M283 343l-47 47l-9 -10l47 -47l-47 -47l9 -9l47 47l47 -47l10 9l-47 47l47 47l-10 10z" />
    <glyph glyph-name="acircumflex" unicode="&#xe2;" 
d="M283 343l-47 47l-9 -10l47 -47l-47 -47l9 -9l47 47l47 -47l10 9l-47 47l47 47l-10 10z" />
    <glyph glyph-name="adieresis" unicode="&#xe4;" 
d="M283 343l-47 47l-9 -10l47 -47l-47 -47l9 -9l47 47l47 -47l10 9l-47 47l47 47l-10 10z" />
    <glyph glyph-name="atilde" unicode="&#xe3;" 
d="M283 343l-47 47l-9 -10l47 -47l-47 -47l9 -9l47 47l47 -47l10 9l-47 47l47 47l-10 10z" />
    <glyph glyph-name="aring" unicode="&#xe5;" 
d="M283 343l-47 47l-9 -10l47 -47l-47 -47l9 -9l47 47l47 -47l10 9l-47 47l47 47l-10 10z" />
    <glyph glyph-name="ccedilla" unicode="&#xe7;" 
d="M283 343l-47 47l-9 -10l47 -47l-47 -47l9 -9l47 47l47 -47l10 9l-47 47l47 47l-10 10z" />
    <glyph glyph-name="eacute" unicode="&#xe9;" 
d="M283 343l-47 47l-9 -10l47 -47l-47 -47l9 -9l47 47l47 -47l10 9l-47 47l47 47l-10 10z" />
    <glyph glyph-name="egrave" unicode="&#xe8;" 
d="M283 343l-47 47l-9 -10l47 -47l-47 -47l9 -9l47 47l47 -47l10 9l-47 47l47 47l-10 10z" />
    <glyph glyph-name="ecircumflex" unicode="&#xea;" 
d="M283 343l-47 47l-9 -10l47 -47l-47 -47l9 -9l47 47l47 -47l10 9l-47 47l47 47l-10 10z" />
    <glyph glyph-name="edieresis" unicode="&#xeb;" 
d="M283 343l-47 47l-9 -10l47 -47l-47 -47l9 -9l47 47l47 -47l10 9l-47 47l47 47l-10 10z" />
    <glyph glyph-name="iacute" unicode="&#xed;" 
d="M283 343l-47 47l-9 -10l47 -47l-47 -47l9 -9l47 47l47 -47l10 9l-47 47l47 47l-10 10z" />
    <glyph glyph-name="igrave" unicode="&#xec;" 
d="M283 343l-47 47l-9 -10l47 -47l-47 -47l9 -9l47 47l47 -47l10 9l-47 47l47 47l-10 10z" />
    <glyph glyph-name="icircumflex" unicode="&#xee;" 
d="M283 343l-47 47l-9 -10l47 -47l-47 -47l9 -9l47 47l47 -47l10 9l-47 47l47 47l-10 10z" />
    <glyph glyph-name="idieresis" unicode="&#xef;" 
d="M283 343l-47 47l-9 -10l47 -47l-47 -47l9 -9l47 47l47 -47l10 9l-47 47l47 47l-10 10z" />
    <glyph glyph-name="ntilde" unicode="&#xf1;" 
d="M283 343l-47 47l-9 -10l47 -47l-47 -47l9 -9l47 47l47 -47l10 9l-47 47l47 47l-10 10z" />
    <glyph glyph-name="oacute" unicode="&#xf3;" 
d="M283 343l-47 47l-9 -10l47 -47l-47 -47l9 -9l47 47l47 -47l10 9l-47 47l47 47l-10 10z" />
    <glyph glyph-name="ograve" unicode="&#xf2;" 
d="M283 343l-47 47l-9 -10l47 -47l-47 -47l9 -9l47 47l47 -47l10 9l-47 47l47 47l-10 10z" />
    <glyph glyph-name="ocircumflex" unicode="&#xf4;" 
d="M283 343l-47 47l-9 -10l47 -47l-47 -47l9 -9l47 47l47 -47l10 9l-47 47l47 47l-10 10z" />
    <glyph glyph-name="odieresis" unicode="&#xf6;" 
d="M283 343l-47 47l-9 -10l47 -47l-47 -47l9 -9l47 47l47 -47l10 9l-47 47l47 47l-10 10z" />
    <glyph glyph-name="otilde" unicode="&#xf5;" 
d="M283 343l-47 47l-9 -10l47 -47l-47 -47l9 -9l47 47l47 -47l10 9l-47 47l47 47l-10 10z" />
    <glyph glyph-name="uacute" unicode="&#xfa;" 
d="M283 343l-47 47l-9 -10l47 -47l-47 -47l9 -9l47 47l47 -47l10 9l-47 47l47 47l-10 10z" />
    <glyph glyph-name="ugrave" unicode="&#xf9;" 
d="M283 343l-47 47l-9 -10l47 -47l-47 -47l9 -9l47 47l47 -47l10 9l-47 47l47 47l-10 10z" />
    <glyph glyph-name="ucircumflex" unicode="&#xfb;" 
d="M283 343l-47 47l-9 -10l47 -47l-47 -47l9 -9l47 47l47 -47l10 9l-47 47l47 47l-10 10z" />
    <glyph glyph-name="udieresis" unicode="&#xfc;" 
d="M283 343l-47 47l-9 -10l47 -47l-47 -47l9 -9l47 47l47 -47l10 9l-47 47l47 47l-10 10z" />
    <glyph glyph-name="dagger" unicode="&#x2020;" 
d="M283 343l-47 47l-9 -10l47 -47l-47 -47l9 -9l47 47l47 -47l10 9l-47 47l47 47l-10 10z" />
    <glyph glyph-name="degree" unicode="&#xb0;" horiz-adv-x="249" 
d="M33 592q0 -19 7 -35.5t19.5 -29t29 -19.5t35.5 -7t36 7t29.5 19.5t19.5 29t7 35.5t-7 35.5t-19.5 29t-29.5 19.5t-36 7t-35.5 -7t-29 -19.5t-19.5 -29t-7 -35.5zM83 592q0 17 12 29.5t29 12.5t29.5 -12.5t12.5 -29.5t-12.5 -29t-29.5 -12t-29 12t-12 29z" />
    <glyph glyph-name="cent" unicode="&#xa2;" horiz-adv-x="488" 
d="M501 133l-94 135q-57 -48 -106 -48q-23 0 -43.5 9t-35.5 24.5t-24 36t-9 43.5q0 24 9 44.5t24.5 36t37 24t46.5 8.5q26 0 46 -8t48 -29l79 144q-19 15 -36.5 25.5t-36 18t-39 11.5t-46.5 7v52h-97v-63q-47 -14 -84.5 -40.5t-64 -61.5t-41 -78t-14.5 -91q0 -47 14.5 -90.5
t41.5 -79t64.5 -62t83.5 -39.5v-62h97v52q33 3 59 8t47 14.5t39 24t35 34.5z" />
    <glyph glyph-name="sterling" unicode="&#xa3;" horiz-adv-x="529" 
d="M249 187l11 55h63l18 87h-63l3 20h64l17 86h-63q9 33 19.5 46t27.5 13q12 0 23.5 -6.5t34.5 -25.5l119 167q-15 9 -26 15.5t-21.5 11.5t-21 9t-24.5 8q-51 14 -93 14q-88 0 -147 -47t-76 -130l-15 -75h-63l-18 -86h63l-4 -20h-63l-17 -87h62l-50 -242h454l66 187h-280z
" />
    <glyph glyph-name="section" unicode="&#xa7;" 
d="M283 343l-47 47l-9 -10l47 -47l-47 -47l9 -9l47 47l47 -47l10 9l-47 47l47 47l-10 10z" />
    <glyph glyph-name="bullet" unicode="&#x2022;" horiz-adv-x="380" 
d="M67 333q0 -26 9.5 -48t26.5 -39t39 -26.5t48 -9.5q25 0 47.5 9.5t39.5 26.5t26.5 39t9.5 48q0 25 -9.5 48t-26.5 39.5t-39.5 26.5t-47.5 10q-26 0 -48 -10t-39 -26.5t-26.5 -39.5t-9.5 -48z" />
    <glyph glyph-name="paragraph" unicode="&#xb6;" 
d="M226 -282h100v844h99v-844h100v844h57v105h-320q-31 0 -55.5 -2t-45 -6t-38 -10.5t-34.5 -16.5q-49 -28 -76.5 -82t-27.5 -120t29 -120.5t77 -78.5q16 -8 29 -13t28 -8t33 -4t45 -1v-487zM226 302h-17q-55 0 -86 34t-31 94q0 37 13.5 68t36.5 45q16 11 32.5 15t48.5 4h3
v-260z" />
    <glyph glyph-name="germandbls" unicode="&#xdf;" 
d="M283 343l-47 47l-9 -10l47 -47l-47 -47l9 -9l47 47l47 -47l10 9l-47 47l47 47l-10 10z" />
    <glyph glyph-name="registered" unicode="&#xae;" horiz-adv-x="657" 
d="M328 117q58 0 109.5 22t90 60.5t60.5 89.5t22 109t-22 109.5t-60.5 90t-90 60.5t-109.5 22t-109 -22t-89.5 -60.5t-60.5 -90t-22 -109.5t22 -109t60.5 -89.5t89.5 -60.5t109 -22zM328 152q-51 0 -96 19.5t-78 52.5t-52.5 78t-19.5 96t19.5 96t53 78t78 52.5t95.5 19.5
t96 -19.5t78 -52.5t52.5 -78t19.5 -96t-19.5 -96t-52.5 -78t-78 -52.5t-96 -19.5zM212 252h60v114h56q32 0 43 -7t12 -28l1 -41q0 -10 1.5 -18t4.5 -20h68v7q-8 3 -10.5 10t-2.5 24v39q0 24 -8.5 37t-29.5 23q46 19 46 70q0 18 -7.5 35t-20.5 28t-29 15.5t-45 4.5h-139v-293
zM272 415v79h73q46 0 46 -39q0 -40 -44 -40h-75z" />
    <glyph glyph-name="copyright" unicode="&#xa9;" horiz-adv-x="853" 
d="M427 -13q72 0 135 27t110 74t74 110t27 135t-27 135t-74 110.5t-110 74.5t-135 27t-135 -27t-110.5 -74.5t-74.5 -110.5t-27 -135t27 -135t74.5 -110t110.5 -74t135 -27zM427 20q-65 0 -122.5 24.5t-100 67t-67 99.5t-24.5 122t24.5 122t67 100t100 67.5t122.5 24.5
t122 -24.5t99.5 -67.5t67 -100t24.5 -122t-24.5 -122t-67 -99.5t-99.5 -67t-122 -24.5zM590 270h-81q-6 -35 -28.5 -54.5t-57.5 -19.5q-46 0 -72 34.5t-26 97.5q0 68 25.5 103.5t74.5 35.5q68 0 83 -69h84q-11 67 -55 103t-116 36q-41 0 -74.5 -14.5t-57 -41.5t-36.5 -64.5
t-13 -83.5q0 -96 49 -152.5t133 -56.5q69 0 113.5 38.5t54.5 107.5z" />
    <glyph glyph-name="trademark" unicode="&#x2122;" horiz-adv-x="603" 
d="M98 373h57v241h80v53h-215v-53h78v-241zM280 373h52v246l49 -246h54l50 246v-246h51v294h-80l-47 -230l-46 230h-83v-294z" />
    <glyph glyph-name="acute" unicode="&#xb4;" horiz-adv-x="246" 
d="M33 700h84l96 111h-145z" />
    <glyph glyph-name="dieresis" unicode="&#xa8;" horiz-adv-x="356" 
d="M33 700h110v103h-110v-103zM213 700h110v103h-110v-103z" />
    <glyph glyph-name="notequal" unicode="&#x2260;" 
d="M283 343l-47 47l-9 -10l47 -47l-47 -47l9 -9l47 47l47 -47l10 9l-47 47l47 47l-10 10z" />
    <glyph glyph-name="AE" unicode="&#xc6;" horiz-adv-x="880" 
d="M-20 0h210l23 60h201l23 -60h416v175h-186v77h176v166h-176v74h180v175h-394v-158l-60 158h-160zM269 207l44 117l45 -117h-89z" />
    <glyph glyph-name="Oslash" unicode="&#xd8;" horiz-adv-x="741" 
d="M524 648q-14 6 -25 10.5t-20.5 8t-19 6t-21.5 4.5q-35 6 -68 6q-72 0 -136 -27.5t-111.5 -74.5t-75 -111t-27.5 -136q0 -31 5.5 -61t16.5 -59q2 -6 5.5 -14.5t8.5 -19.5l-63 -64l161 -160l62 63q41 -19 77.5 -27.5t76.5 -8.5q73 0 136.5 27.5t111 75t75 111.5t27.5 137
q0 58 -17 109q-2 8 -7 19t-11 25l63 63l-161 160zM230 333q0 29 11 54.5t30 44.5t44.5 30t54.5 11t54.5 -11t44.5 -30t30 -44.5t11 -54.5t-11 -54.5t-30 -44.5t-44.5 -30t-54.5 -11t-54.5 11t-44.5 30t-30 44.5t-11 54.5z" />
    <glyph glyph-name="infinity" unicode="&#x221e;" 
d="M283 343l-47 47l-9 -10l47 -47l-47 -47l9 -9l47 47l47 -47l10 9l-47 47l47 47l-10 10z" />
    <glyph glyph-name="plusminus" unicode="&#xb1;" horiz-adv-x="587" 
d="M547 107h-507v-107h507v107zM40 360h201v-201h106v201h200v106h-200v201h-107v-201h-200v-106z" />
    <glyph glyph-name="lessequal" unicode="&#x2264;" 
d="M283 343l-47 47l-9 -10l47 -47l-47 -47l9 -9l47 47l47 -47l10 9l-47 47l47 47l-10 10z" />
    <glyph glyph-name="greaterequal" unicode="&#x2265;" 
d="M283 343l-47 47l-9 -10l47 -47l-47 -47l9 -9l47 47l47 -47l10 9l-47 47l47 47l-10 10z" />
    <glyph glyph-name="yen" unicode="&#xa5;" horiz-adv-x="600" 
d="M408 289l11 20h141v86h-94l147 272h-236l-77 -141l-77 141h-236l147 -272h-94v-86h142l10 -20h-152v-87h153v-202h214v202h153v87h-152z" />
    <glyph glyph-name="mu" unicode="&#xb5;" 
d="M283 343l-47 47l-9 -10l47 -47l-47 -47l9 -9l47 47l47 -47l10 9l-47 47l47 47l-10 10z" />
    <glyph glyph-name="mu" unicode="&#x3bc;" 
d="M283 343l-47 47l-9 -10l47 -47l-47 -47l9 -9l47 47l47 -47l10 9l-47 47l47 47l-10 10z" />
    <glyph glyph-name="partialdiff" unicode="&#x2202;" 
d="M283 343l-47 47l-9 -10l47 -47l-47 -47l9 -9l47 47l47 -47l10 9l-47 47l47 47l-10 10z" />
    <glyph glyph-name="product" unicode="&#x220f;" 
d="M283 343l-47 47l-9 -10l47 -47l-47 -47l9 -9l47 47l47 -47l10 9l-47 47l47 47l-10 10z" />
    <glyph glyph-name="pi" unicode="&#x3c0;" 
d="M283 343l-47 47l-9 -10l47 -47l-47 -47l9 -9l47 47l47 -47l10 9l-47 47l47 47l-10 10z" />
    <glyph glyph-name="integral" unicode="&#x222b;" 
d="M283 343l-47 47l-9 -10l47 -47l-47 -47l9 -9l47 47l47 -47l10 9l-47 47l47 47l-10 10z" />
    <glyph glyph-name="ordfeminine" unicode="&#xaa;" 
d="M283 343l-47 47l-9 -10l47 -47l-47 -47l9 -9l47 47l47 -47l10 9l-47 47l47 47l-10 10z" />
    <glyph glyph-name="ordmasculine" unicode="&#xba;" 
d="M283 343l-47 47l-9 -10l47 -47l-47 -47l9 -9l47 47l47 -47l10 9l-47 47l47 47l-10 10z" />
    <glyph glyph-name="ae" unicode="&#xe6;" 
d="M283 343l-47 47l-9 -10l47 -47l-47 -47l9 -9l47 47l47 -47l10 9l-47 47l47 47l-10 10z" />
    <glyph glyph-name="oslash" unicode="&#xf8;" 
d="M283 343l-47 47l-9 -10l47 -47l-47 -47l9 -9l47 47l47 -47l10 9l-47 47l47 47l-10 10z" />
    <glyph glyph-name="questiondown" unicode="&#xbf;" horiz-adv-x="438" 
d="M385 10v187h-8q-18 0 -29.5 0.5t-20 1.5t-14.5 2.5t-12 4.5q-15 7 -24 20t-9 30q0 18 8 35t31 49q15 21 24.5 37.5t15.5 33t8.5 34.5t2.5 42h-213q-4 -23 -7 -35t-10 -29q-4 -9 -7.5 -16t-9 -16.5t-14 -24t-22.5 -36.5q-12 -20 -20 -35.5t-13 -29.5t-7 -28.5t-2 -31.5
q0 -47 18 -84.5t50.5 -64.5t79 -41.5t103.5 -14.5q13 0 23.5 0.5t22 1.5t24.5 3t31 5zM145 517h213v166h-213v-166z" />
    <glyph glyph-name="exclamdown" unicode="&#xa1;" horiz-adv-x="333" 
d="M60 500h213v167h-213v-167zM53 0h227l-33 470h-160z" />
    <glyph glyph-name="logicalnot" unicode="&#xac;" 
d="M42 329v-131h348v-169h135v300h-483z" />
    <glyph glyph-name="radical" unicode="&#x221a;" 
d="M283 343l-47 47l-9 -10l47 -47l-47 -47l9 -9l47 47l47 -47l10 9l-47 47l47 47l-10 10z" />
    <glyph glyph-name="florin" unicode="&#x192;" horiz-adv-x="509" 
d="M284 349h63l18 86h-63q9 33 19.5 46t27.5 13q12 0 23.5 -6.5t34.5 -25.5l118 167q-15 9 -26 15.5t-21 11.5t-20.5 9t-24.5 8q-51 14 -93 14q-88 0 -147 -47t-76 -130l-16 -75h-62l-18 -86h63l-5 -20h-62l-18 -87h63l-89 -436h201l89 436h62l18 87h-63z" />
    <glyph glyph-name="approxequal" unicode="&#x2248;" 
d="M283 343l-47 47l-9 -10l47 -47l-47 -47l9 -9l47 47l47 -47l10 9l-47 47l47 47l-10 10z" />
    <glyph glyph-name="guillemotleft" unicode="&#xab;" horiz-adv-x="589" 
d="M165 0h144l-118 227l118 226h-144l-132 -226zM412 0h144l-119 227l119 226h-144l-132 -226z" />
    <glyph glyph-name="guillemotright" unicode="&#xbb;" horiz-adv-x="589" 
d="M424 0l132 227l-132 226h-144l118 -226l-118 -227h144zM177 0l132 227l-132 226h-144l119 -226l-119 -227h144z" />
    <glyph glyph-name="ellipsis" unicode="&#x2026;" horiz-adv-x="920" 
d="M33 0h214v167h-214v-167zM353 0h214v167h-214v-167zM673 0h214v167h-214v-167z" />
    <glyph glyph-name="Agrave" unicode="&#xc0;" horiz-adv-x="640" 
d="M-13 0h210l22 60h202l22 -60h210l-253 667h-160zM275 207l45 117l45 -117h-90zM358 700l-35 111h-145l96 -111h84z" />
    <glyph glyph-name="Atilde" unicode="&#xc3;" horiz-adv-x="640" 
d="M-13 0h210l22 60h202l22 -60h210l-253 667h-160zM275 207l45 117l45 -117h-90zM240 700q0 32 22 32q17 0 48 -13q22 -10 42 -14.5t37 -4.5q40 0 58.5 25.5t22.5 85.5h-69q-3 -33 -24 -33q-18 0 -43 12q-48 22 -79 22q-39 0 -60.5 -27.5t-21.5 -78.5v-6h67z" />
    <glyph glyph-name="Otilde" unicode="&#xd5;" horiz-adv-x="740" 
d="M20 333q0 -72 27.5 -136t75 -111.5t111.5 -75t136 -27.5t136 27.5t111.5 75t75 111.5t27.5 136q0 73 -27.5 136.5t-75 111t-111.5 75t-136 27.5t-136 -27.5t-111.5 -75t-75 -111t-27.5 -136.5zM230 333q0 29 11 54.5t30 44.5t44.5 30t54.5 11t54.5 -11t44.5 -30t30 -44.5
t11 -54.5t-11 -54.5t-30 -44.5t-44.5 -30t-54.5 -11t-54.5 11t-44.5 30t-30 44.5t-11 54.5zM291 700q0 32 22 32q17 0 48 -13q22 -10 42 -14.5t37 -4.5q40 0 58.5 25.5t22.5 85.5h-69q-3 -33 -24 -33q-18 0 -43 12q-48 22 -79 22q-39 0 -60.5 -27.5t-21.5 -78.5v-6h67z" />
    <glyph glyph-name="OE" unicode="&#x152;" horiz-adv-x="1013" 
d="M587 0h400v175h-187v77h177v166h-177v74h180v175h-393v-59q-96 75 -217 75q-72 0 -136 -27.5t-111.5 -75t-75 -111.5t-27.5 -136t27.5 -136t75 -111.5t111.5 -75t136 -27.5q62 0 114 18.5t103 57.5v-59zM230 333q0 29 11 54.5t30 44.5t44.5 30t54.5 11t54.5 -11t44.5 -30
t30 -44.5t11 -54.5t-11 -54.5t-30 -44.5t-44.5 -30t-54.5 -11t-54.5 11t-44.5 30t-30 44.5t-11 54.5z" />
    <glyph glyph-name="oe" unicode="&#x153;" 
d="M283 343l-47 47l-9 -10l47 -47l-47 -47l9 -9l47 47l47 -47l10 9l-47 47l47 47l-10 10z" />
    <glyph glyph-name="endash" unicode="&#x2013;" horiz-adv-x="483" 
d="M67 250h350v167h-350v-167z" />
    <glyph glyph-name="emdash" unicode="&#x2014;" horiz-adv-x="833" 
d="M67 250h700v167h-700v-167z" />
    <glyph glyph-name="quotedblleft" unicode="&#x201c;" horiz-adv-x="550" 
d="M253 397h190l87 270h-170zM20 397h190l87 270h-170z" />
    <glyph glyph-name="quotedblright" unicode="&#x201d;" horiz-adv-x="530" 
d="M20 397h170l87 270h-190zM253 397h170l87 270h-190z" />
    <glyph glyph-name="quoteleft" unicode="&#x2018;" horiz-adv-x="317" 
d="M20 397h190l87 270h-170z" />
    <glyph glyph-name="quoteright" unicode="&#x2019;" horiz-adv-x="297" 
d="M20 397h170l87 270h-190z" />
    <glyph glyph-name="divide" unicode="&#xf7;" 
d="M283 343l-47 47l-9 -10l47 -47l-47 -47l9 -9l47 47l47 -47l10 9l-47 47l47 47l-10 10z" />
    <glyph glyph-name="lozenge" unicode="&#x25ca;" 
d="M283 343l-47 47l-9 -10l47 -47l-47 -47l9 -9l47 47l47 -47l10 9l-47 47l47 47l-10 10z" />
    <glyph glyph-name="ydieresis" unicode="&#xff;" horiz-adv-x="587" 
d="M183 0h220v281l197 277l-176 125l-131 -183l-130 183l-176 -125l196 -277v-281zM147 700h110v103h-110v-103zM327 700h110v103h-110v-103z" />
    <glyph glyph-name="Ydieresis" unicode="&#x178;" horiz-adv-x="593" 
d="M190 0h213v287l207 380h-237l-76 -141l-77 141h-237l207 -380v-287zM152 700h110v103h-110v-103zM332 700h110v103h-110v-103z" />
    <glyph glyph-name="currency" unicode="&#xa4;" 
d="M283 343l-47 47l-9 -10l47 -47l-47 -47l9 -9l47 47l47 -47l10 9l-47 47l47 47l-10 10z" />
    <glyph glyph-name="guilsinglleft" unicode="&#x2039;" horiz-adv-x="343" 
d="M165 0h144l-118 227l118 226h-144l-132 -226z" />
    <glyph glyph-name="guilsinglright" unicode="&#x203a;" horiz-adv-x="343" 
d="M177 0l132 227l-132 226h-144l119 -226l-119 -227h144z" />
    <glyph glyph-name="fi" unicode="&#xfb01;" 
d="M283 343l-47 47l-9 -10l47 -47l-47 -47l9 -9l47 47l47 -47l10 9l-47 47l47 47l-10 10z" />
    <glyph glyph-name="fl" unicode="&#xfb02;" 
d="M283 343l-47 47l-9 -10l47 -47l-47 -47l9 -9l47 47l47 -47l10 9l-47 47l47 47l-10 10z" />
    <glyph glyph-name="daggerdbl" unicode="&#x2021;" 
d="M283 343l-47 47l-9 -10l47 -47l-47 -47l9 -9l47 47l47 -47l10 9l-47 47l47 47l-10 10z" />
    <glyph glyph-name="periodcentered" unicode="&#xb7;" horiz-adv-x="280" 
d="M33 250h214v167h-214v-167z" />
    <glyph glyph-name="quotesinglbase" unicode="&#x201a;" horiz-adv-x="277" 
d="M0 -103h170l87 270h-190z" />
    <glyph glyph-name="quotedblbase" unicode="&#x201e;" horiz-adv-x="530" 
d="M20 -103h170l87 270h-190zM253 -103h170l87 270h-190z" />
    <glyph glyph-name="perthousand" unicode="&#x2030;" horiz-adv-x="984" 
d="M20 492q0 -91 39.5 -142.5t108.5 -51.5q70 0 109.5 51.5t39.5 142.5q0 92 -39.5 143.5t-109.5 51.5q-69 0 -108.5 -51.5t-39.5 -143.5zM347 171q0 -91 39 -142.5t109 -51.5t109.5 51t39.5 143q0 91 -39.5 142.5t-109.5 51.5t-109 -51.5t-39 -142.5zM160 0h60l287 667h-60
zM667 171q0 -91 39 -142.5t109 -51.5t109.5 51t39.5 143q0 91 -39.5 142.5t-109.5 51.5t-109 -51.5t-39 -142.5zM134 492q0 88 34 88q35 0 35 -88t-34 -88q-35 0 -35 88zM460 171q0 88 34 88q36 0 36 -88t-34 -88q-36 0 -36 88zM780 171q0 88 34 88q36 0 36 -88t-34 -88
q-36 0 -36 88z" />
    <glyph glyph-name="Acircumflex" unicode="&#xc2;" horiz-adv-x="640" 
d="M-13 0h210l22 60h202l22 -60h210l-253 667h-160zM275 207l45 117l45 -117h-90zM176 700h94l50 51l51 -51h93l-67 111h-153z" />
    <glyph glyph-name="Ecircumflex" unicode="&#xca;" horiz-adv-x="463" 
d="M37 0h400v175h-187v77h177v166h-177v74h180v175h-393v-667zM84 700h94l50 51l51 -51h93l-67 111h-153z" />
    <glyph glyph-name="Aacute" unicode="&#xc1;" horiz-adv-x="640" 
d="M-13 0h210l22 60h202l22 -60h210l-253 667h-160zM275 207l45 117l45 -117h-90zM286 700h84l96 111h-145z" />
    <glyph glyph-name="Edieresis" unicode="&#xcb;" horiz-adv-x="463" 
d="M37 0h400v175h-187v77h177v166h-177v74h180v175h-393v-667zM82 700h110v103h-110v-103zM262 700h110v103h-110v-103z" />
    <glyph glyph-name="Egrave" unicode="&#xc8;" horiz-adv-x="463" 
d="M37 0h400v175h-187v77h177v166h-177v74h180v175h-393v-667zM272 700l-35 111h-145l96 -111h84z" />
    <glyph glyph-name="Iacute" unicode="&#xcd;" horiz-adv-x="300" 
d="M37 0h226v667h-226v-667zM104 700h84l96 111h-145z" />
    <glyph glyph-name="Icircumflex" unicode="&#xce;" horiz-adv-x="300" 
d="M37 0h226v667h-226v-667zM6 700h94l50 51l51 -51h93l-67 111h-153z" />
    <glyph glyph-name="Idieresis" unicode="&#xcf;" horiz-adv-x="300" 
d="M37 0h226v667h-226v-667zM5 700h110v103h-110v-103zM185 700h110v103h-110v-103z" />
    <glyph glyph-name="Igrave" unicode="&#xcc;" horiz-adv-x="300" 
d="M37 0h226v667h-226v-667zM194 700l-35 111h-145l96 -111h84z" />
    <glyph glyph-name="Oacute" unicode="&#xd3;" horiz-adv-x="740" 
d="M20 333q0 -72 27.5 -136t75 -111.5t111.5 -75t136 -27.5t136 27.5t111.5 75t75 111.5t27.5 136q0 73 -27.5 136.5t-75 111t-111.5 75t-136 27.5t-136 -27.5t-111.5 -75t-75 -111t-27.5 -136.5zM230 333q0 29 11 54.5t30 44.5t44.5 30t54.5 11t54.5 -11t44.5 -30t30 -44.5
t11 -54.5t-11 -54.5t-30 -44.5t-44.5 -30t-54.5 -11t-54.5 11t-44.5 30t-30 44.5t-11 54.5zM320 700h84l96 111h-145z" />
    <glyph glyph-name="Ocircumflex" unicode="&#xd4;" horiz-adv-x="740" 
d="M20 333q0 -72 27.5 -136t75 -111.5t111.5 -75t136 -27.5t136 27.5t111.5 75t75 111.5t27.5 136q0 73 -27.5 136.5t-75 111t-111.5 75t-136 27.5t-136 -27.5t-111.5 -75t-75 -111t-27.5 -136.5zM230 333q0 29 11 54.5t30 44.5t44.5 30t54.5 11t54.5 -11t44.5 -30t30 -44.5
t11 -54.5t-11 -54.5t-30 -44.5t-44.5 -30t-54.5 -11t-54.5 11t-44.5 30t-30 44.5t-11 54.5zM225 700h94l50 51l51 -51h93l-67 111h-153z" />
    <glyph glyph-name="apple" unicode="&#xf8ff;" horiz-adv-x="724" 
d="M123 630l-19 16l2 -26l-13 12l1 -23l-5 4l1 -19q2 -11 12 -17q3 -2 3 -4q0 -1 -2 -2.5t-11 -7.5q-9 -5 -9 -13v-2q0 -1 1 -1l24 -5l-17 -30q-2 -6 -2 -9q0 -5 2 -9l8 -13l-12 -23l-7 -32l-10 -30q-3 -9 -3 -25q0 -52 18 -82l22 -38l36 -64q10 -18 43 -44l10 -8
q16 -13 25 -16q13 -5 17.5 -7t4.5 -4q0 -3 -6 -16l-10 -22l-9 -11l-44 -33l-3 -19l55 21h1q1 0 9 -3l15 -5l14 -9l8 -3l5 -7l5 15l-7 15q-1 0 -1 2q0 4 5 4q2 0 3 -1l45 -27l6 10q0 1 0.5 1.5t0.5 1.5q0 9 -3 12l-23 14q-10 6 -10 18q0 4 1 6l5 11l6 24l27 -5l29 14h10
q10 0 21 12q23 26 27 28l10 6l20 29l51 21l-1 -5l-11 -29l29 4l19 24l6 -30l25 18l3 -16l16 4l-3 -16l16 14l27 41q5 6 6 9t2 7v6l10 -4l2 50l-7 28l7 -1l-8 18l13 -6l-10 37q-1 2 5 61v1q0 9 -11 28q-4 7 -7 11t-5 6l-34 27l6 3l-25 7l-25 8q-3 1 -9 1q-17 0 -40 -10.5
t-45 -29.5l-12 -10l-2 4l-10 -7l-5 -6q-6 -6 -13 -28q-9 -34 -16 -49t-15 -18q-7 -3 -20 -6t-33 -3h-6q-20 0 -35.5 7t-23.5 18q-4 7 -7 15t-5.5 22.5t-5.5 37.5t-7 60q-2 17 -5 26t-11 17l-30 36l13 11l2 4l3 14l2 10l-15 -5l-2 16l-10 -6l-6 21l-13 -16l2 21l-27 -20
l-12 22l-8 -11zM171 601l-42 -15l-11 -7l20 17l19 8zM168 584l23 -15q5 -3 8.5 -8t8.5 -28q2 -5 3 -10t1 -8l1 -116l5 -19l15 -26l-13 8l-10 15l3 -15l-5 5q-7 9 -7 18l1 1l4 46l-4 27v31l-9 -51q-1 -3 -1 -10q0 -21 1.5 -39t4.5 -23l16 -30l-18 23l-16 61l-6 -18l-8 60
q-2 0 -4 -17q-1 -4 -1 -12v-3q0 -23 3.5 -41.5t8.5 -30.5l15 -37l-22 24l-7 32l-16 34l17 -90l-14 17l-13 33l-11 76l-5 -19q-2 -3 0 -9l3 -31q2 -12 4.5 -24t8.5 -24l17 -35l-22 25l-22 47l2 -26l17 -42l-16 12l-11 36h3l-5 52l-1 3l6 34l4 27l10 14l3 -3l10 8l24 20l1 -4
l14 22l2 -14l8 20l1 -18q0 -1 -2.5 -6l-6.5 -13q-3 -6 -3 -12q0 -1 1 -2l1 -2l12 16l4 17l9 -24l3 25l-3 20l-4 -4l-7 35l-2 5zM235 497l-5 18q-6 20 -9 25l-12 16l-19 27l11 -5q3 -2 7 -6q5 -5 9.5 -12t8.5 -15q8 -18 8 -23zM151 580h2l2 -2v-6v-2l-1 -1l-2 -3l-2 -1l-3 -1
h-2l-1 1l-2 2h4l5 5v8zM161 580l1 -1l3 -3v-4v-2l-3 -4l-1 -2l-3 -2l-1 -1h-2v4l3 3l2 2v1l1 3v6zM137 577l2 2h4l2 -3v-1v-2l-1 -3h-4l-3 4v2v1zM109 561l6 -2l4 -5l-22 -2q-1 0 -1 3v3q1 2 2 3l14 9zM124 560h3l5 -5v-1l-2 -3l-4 3l-2 3v1v2zM167 560v-3q0 -29 -16 -31h-5
l16 17l3 4zM111 549l2 1l4 -1h2l2 -1l3 -1v-3h-3l-2 -1l-5 1h-2l-5 2h-3l1 2l1 1h3h2zM117 534l-6 -23v-7l1 -2q0 -5 -2 -5l-8 -4l2 24q1 4 8 11zM125 522l2 1v-2l-1 -3l-2 -2v-3v-1l-2 -4v-3l-2 -2h-3v3l2 7l3 5zM234 406l9 -35l-15 20l-2 -3l-4 15q-2 6 -1.5 23.5
t0.5 46.5v32v7l5 -16zM397 363l15 29l21 49q2 4 2 3l10 4l37 35q9 8 22 13.5t24 6.5l20 1l-74 -40l-22 -22zM631 440l10 -21l-4 -6v-17l-11 29q-6 15 -25 37q-12 12 -20 15l-32 11l6 4l32 -3l2 -4q2 -3 5.5 -6t14.5 -9q19 -10 20 -20zM565 445l-41 4h-3q-10 0 -28 -8
q-16 -10 -22 -20l-32 -46l12 37q8 23 30.5 36.5t55.5 13.5q52 0 64 -23q3 -5 5.5 -10.5t1.5 -5.5q-2 0 -12 12q-11 12 -22 12h-1zM86 369l13 -58l-16 15q-8 11 -8 30v9l2 25l12 45q1 2 2.5 -1.5t1.5 -5.5zM633 360l-36 37q-13 13 -41 13q-7 0 -15 -2l-31 -12l14 18l11 7
l6 -4h1l28 4h5q8 0 12.5 -1.5t12.5 -8.5q14 -9 19 -18q0 -1 1 -1q0 -1 -1 -1v-1q-2 -1 -3 -3l11 -15zM263 366l13 -10l-15 3l2 -5l-4 1l-10 31l-1.5 6t-0.5 4v1h1zM546 387l32 -1l1 -3v-1l14 -13l11 -17l-34 21q-9 6 -22 6q-4 0 -7 -0.5t-7 -0.5l-54 -10l8 5l50 17zM478 367
v1h2v-1h-2zM558 355l27 -7q2 0 5 -3q19 -16 30 -40q4 -9 6.5 -20.5t2.5 -19.5q0 -5 -2 -11l-14 -43l3 71l-6 -2q-3 0 -3 12q-1 11 -7 25t-14 19zM284 350l68 -6l52 6q1 0 2 0.5t2 0.5q6 0 13 -2.5t9 -5.5l13 -17l-18 9l25 -45q5 -8 5 -24q0 -13 -2 -18l-4 -12l-2 37
q-2 31 -25 46l-11 7l19 -36v-42l-4 29q-2 8 -8 16q-15 20 -16 20l-18 9l19 -21q10 -12 10 -26v-5l-6 -23l-24 58q-7 17 -17 19h-7l13 -12q5 -5 8 -12q11 -30 11 -37l-3 -21l-11 40q-3 10 -10 19q-2 3 -3 3l-12 10l8 -11l15 -49l-30 50l-3 -32l-8 22l-14 23zM476 343l35 -1
q9 0 21 -5q29 -14 33 -24l8 -14h-7l2 -4q4 -5 8 -22l4 -22q1 -3 1 -12q0 -15 -5 -20l-8 -7l2 29v2q0 18 -16 49q-9 18 -17.5 26.5t-20.5 12.5zM457 332h7l11 -3l3 -2l1 -2h-17l-5 5v2zM528 298l-27 10l-26 -4q-4 0 -4 5q0 10 20 10q15 0 26 -8l2 -1q6 -5 8 -8zM118 268
l19 -21l22 -39l-14 14l-35 46l-9 21l-5 9l16 -10zM486 294h12l28 -8l-23 2l-17 -1l-1 1l-2 6h3zM526 201l-5 2l-3 -7l-9 -10l4 42v1q-2 7 -9 21q-2 6 -4 11.5t0 5.5q3 0 12 -9q4 -4 5 -6q2 -5 4 -9.5t2 -9.5zM338 222l-14 -5h-42l-8 -3h-1q-7 0 -23 8q-11 5 -17 9.5t-9 7.5
l-17 19l15 -3l35 -21q8 -5 14.5 -6.5t13.5 -2.5zM245 254l55 -6q0 -4 -5 -6q-4 -2 -5 -2h-1q-12 2 -20 4q-5 2 -8 2.5t-5 2.5zM154 248l30 -33l27 -52l20 -21l6 -4l-13 3q-5 2 -10 6t-10 14l-22 38zM391 227l15 -2l-37 -1q-13 0 -15 5l-3 7zM467 211l18 8l11 9q1 0 1 -6
q0 -3 -3 -6q-5 -5 -11 -5h-16zM356 219l79 -6q0 -4 -14 -6q-8 -4 -15 -4.5t-14 -0.5q-12 0 -23 4q-5 1 -6 3zM160 206h1v-2l-1 -1v1v2zM608 204l1 1v-1v-1v-1l-1 1v1zM306 189l-23 -4q-3 -1 -8 2l-12 10h3zM369 196h36q0 -2 -5 -3.5t-13 -3.5h-3q-7 0 -11 3q-4 2 -3 2z
M238 185l40 -16q1 -1 8 0h1q4 0 4 -2q0 -4 -8 -4q-14 0 -30 9q-4 2 -5.5 3t-3.5 2zM355 175l-19 -13q-2 -1 -8 -1q-5 0 -8.5 2t-3.5 4q0 4 13 4h3h4h1zM413 160l-16 -22l-22 -12l1 13l9 3zM267 157l64 -2q1 0 1 -2q0 -6 -6 -9q-1 0 -2 -0.5t-2 -0.5q-8 0 -21.5 2.5
t-23.5 5.5q-5 1 -6 3zM337 115l4 3l19 15h2q1 0 1 -1q0 -2 -1 -4q-3 -5 -8 -8q-4 -2 -7.5 -3t-5.5 -2h-4zM248 100h3l2 -3l1 -1l2 -2l-3 -2h-4l-2 2v1l1 2v3zM268 96l1 4l2 2q1 0 1.5 0.5t1.5 0.5q7 0 7 -8q0 -2 -2 -10q-2 -3 -6 -18q-5 -16 -11 -16t-6 13q0 2 0.5 4t0.5 3z
M288 96h7l4 -1h1l-1 -3h-1h-7l-3 -2v6zM244 89v1l4 -2l4 -4l1 -1h-5l-3 1h-2v3zM287 86h4l4 -2h2v-2h-2l-4 -2h-5v2v1zM240 82l2 -2h1l2 -1l3 -1l2 -1l-2 -3h-2l-1 1l-2 1h-3v6zM284 76h10l-4 -5l2 -6l-4 -3l1 -7l-12 2l5 10zM234 67l10 -5l-8 -2l2 -7l-17 -6l7 10zM247 51
l1 1l3 -4v-1l-3 -3l-3 -2h-2h-2v3zM269 50l2 2h2v-4l-4 -4h-2l1 3v2zM293 49l2 1l2 -2v-1l-6 -7h-4v4l4 4zM251 44h1h3l3 -2v-2h-1l-2 -1l-2 -2h-2l-2 -1l-2 2l1 2l1 2zM300 44h1h1l2 -2l-1 -2l-1 -1l-4 -5h-4v4l2 1l1 3v1zM210 34h-6l-7 -10q-5 0 -5 6q0 3 1 3l14 9z
M277 42l2 1h2v-2l-4 -5l-3 -1l-1 -1h-1l-2 2v4h2l2 1zM234 38l1 1h2v-6l-3 -1h-2h-15l1 1l4 1h1l5 2h1h2zM258 38l1 1h2l7 -8v-2l-2 -3l-3 -1l-1 -1h-2v2l-2 2l3 3l2 2h-2l-3 -1h-1l-2 -2l-2 2v2l3 2zM307 38l2 1h2l2 -3v-2h-2l-4 -2l-1 -1l-2 -1h-3v4l3 2zM314 32l1 1h1
l3 -3l1 -1h-1l-2 -1l-1 -1l-2 -1l-3 2v1zM243 32h6l2 -2l2 -1l1 -1l4 -4l2 -1l1 -1l2 -2l1 -3h-3l-5 4l-6 5h-2l-2 1h-1l-2 2v3zM327 31l1 1h2l1 -3v-3v-1v-2l-2 -3v-2l-1 -1l-1 1l-2 6l-1 2l-1 2l1 1zM180 26v1h7v-2l-1 -1l-1 -3h-1l-2 -1l-5 -5l-2 -2v-1v-1h-1v7l1 2l1 3z
M268 26l3 1l2 -2v-1l-2 -2l-3 -1v-1h-2v4zM274 21h1l3 -3v-9l-2 1v1l-1 2h-2l-3 3z" />
    <glyph glyph-name="Ograve" unicode="&#xd2;" horiz-adv-x="740" 
d="M20 333q0 -72 27.5 -136t75 -111.5t111.5 -75t136 -27.5t136 27.5t111.5 75t75 111.5t27.5 136q0 73 -27.5 136.5t-75 111t-111.5 75t-136 27.5t-136 -27.5t-111.5 -75t-75 -111t-27.5 -136.5zM230 333q0 29 11 54.5t30 44.5t44.5 30t54.5 11t54.5 -11t44.5 -30t30 -44.5
t11 -54.5t-11 -54.5t-30 -44.5t-44.5 -30t-54.5 -11t-54.5 11t-44.5 30t-30 44.5t-11 54.5zM409 700l-35 111h-145l96 -111h84z" />
    <glyph glyph-name="Uacute" unicode="&#xda;" horiz-adv-x="620" 
d="M33 667v-434q0 -55 20.5 -101t57 -79t87.5 -51.5t112 -18.5t111.5 18.5t87.5 51.5t57.5 79t20.5 101v434h-224v-385q0 -54 -12.5 -78t-40.5 -24t-40.5 24t-12.5 78v385h-224zM258 700h84l96 111h-145z" />
    <glyph glyph-name="Ucircumflex" unicode="&#xdb;" horiz-adv-x="620" 
d="M33 667v-434q0 -55 20.5 -101t57 -79t87.5 -51.5t112 -18.5t111.5 18.5t87.5 51.5t57.5 79t20.5 101v434h-224v-385q0 -54 -12.5 -78t-40.5 -24t-40.5 24t-12.5 78v385h-224zM166 700h94l50 51l51 -51h93l-67 111h-153z" />
    <glyph glyph-name="Ugrave" unicode="&#xd9;" horiz-adv-x="620" 
d="M33 667v-434q0 -55 20.5 -101t57 -79t87.5 -51.5t112 -18.5t111.5 18.5t87.5 51.5t57.5 79t20.5 101v434h-224v-385q0 -54 -12.5 -78t-40.5 -24t-40.5 24t-12.5 78v385h-224zM347 700l-35 111h-145l96 -111h84z" />
    <glyph glyph-name="dotlessi" unicode="&#x131;" 
d="M283 343l-47 47l-9 -10l47 -47l-47 -47l9 -9l47 47l47 -47l10 9l-47 47l47 47l-10 10z" />
    <glyph glyph-name="circumflex" unicode="&#x2c6;" horiz-adv-x="355" 
d="M33 700h94l50 51l51 -51h93l-67 111h-153z" />
    <glyph glyph-name="tilde" unicode="&#x2dc;" horiz-adv-x="363" 
d="M100 700q0 32 22 32q17 0 48 -13q22 -10 42 -14.5t37 -4.5q40 0 58.5 25.5t22.5 85.5h-69q-3 -33 -24 -33q-18 0 -43 12q-48 22 -79 22q-39 0 -60.5 -27.5t-21.5 -78.5v-6h67z" />
    <glyph glyph-name="macron" unicode="&#xaf;" horiz-adv-x="310" 
d="M33 700h244v69h-244v-69z" />
    <glyph glyph-name="macron" unicode="&#x2c9;" horiz-adv-x="310" 
d="M33 700h244v69h-244v-69z" />
    <glyph glyph-name="breve" unicode="&#x2d8;" horiz-adv-x="313" 
d="M33 811q4 -55 36.5 -86.5t87.5 -31.5q54 0 86.5 31.5t36.5 86.5h-51q-12 -47 -70 -47q-64 0 -75 47h-51z" />
    <glyph glyph-name="dotaccent" unicode="&#x2d9;" horiz-adv-x="176" 
d="M33 700h110v103h-110v-103z" />
    <glyph glyph-name="ring" unicode="&#x2da;" horiz-adv-x="234" 
d="M33 750q0 -17 6.5 -32.5t18 -26.5t26.5 -17.5t33 -6.5q35 0 59 24t24 59t-24 59.5t-59 24.5q-18 0 -33 -6.5t-26.5 -18t-18 -27t-6.5 -32.5zM77 750q0 17 11.5 28.5t28.5 11.5t28.5 -11.5t11.5 -28.5t-11.5 -28.5t-28.5 -11.5t-28.5 11.5t-11.5 28.5z" />
    <glyph glyph-name="cedilla" unicode="&#xb8;" horiz-adv-x="247" 
d="M33 -182q25 -5 38 -6.5t31 -1.5q49 0 80.5 21.5t31.5 54.5q0 51 -69 58l26 56h-54l-43 -88q10 1 14 1h9q17 0 27.5 -7.5t10.5 -18.5q0 -12 -12 -19.5t-32 -7.5q-9 0 -20 1.5t-27 6.5z" />
    <glyph glyph-name="hungarumlaut" unicode="&#x2dd;" horiz-adv-x="328" 
d="M33 700h66l73 102h-94zM156 700h65l74 102h-95z" />
    <glyph glyph-name="ogonek" unicode="&#x2db;" horiz-adv-x="229" 
d="M196 -180l-7 75q-7 -2 -11 -2h-8q-23 0 -37 13t-14 35q0 14 7.5 25.5t19.5 17.5q8 4 15 5.5t26 3.5l-1 7h-65q-38 0 -64 -26.5t-26 -64.5q0 -43 32.5 -68.5t89.5 -25.5q12 0 20 1t23 4z" />
    <glyph glyph-name="caron" unicode="&#x2c7;" horiz-adv-x="355" 
d="M321 811h-93l-51 -51l-50 51h-94l68 -111h153z" />
    <glyph glyph-name="numbersign" unicode="#" horiz-adv-x="391" 
d="M57 200h64l23 140h71l-23 -140h64l23 140h60l10 62h-60l12 76h60l10 62h-59l20 127h-64l-21 -127h-70l21 127h-64l-21 -127h-60l-10 -62h60l-13 -76h-60l-10 -62h60zM154 402l13 76h70l-12 -76h-71z" />
    <glyph glyph-name="exclam" unicode="!" horiz-adv-x="333" 
d="M60 0h213v167h-213v-167zM87 197h160l33 470h-227z" />
    <glyph glyph-name="quotedbl" unicode="&#x22;" horiz-adv-x="389" 
d="M27 428h48l101 166q5 9 8.5 19t3.5 18q0 23 -16 37.5t-41 14.5q-46 0 -58 -51zM195 428h48l101 166q5 9 8.5 19t3.5 18q0 23 -16 37.5t-41 14.5q-46 0 -58 -51z" />
    <glyph glyph-name="Omega" unicode="&#x3a9;" 
d="M283 343l-47 47l-9 -10l47 -47l-47 -47l9 -9l47 47l47 -47l10 9l-47 47l47 47l-10 10z" />
    <glyph glyph-name="Delta" unicode="&#x394;" 
d="M283 343l-47 47l-9 -10l47 -47l-47 -47l9 -9l47 47l47 -47l10 9l-47 47l47 47l-10 10z" />
    <glyph glyph-name="fraction" unicode="&#x2215;" horiz-adv-x="347" 
d="M0 0h60l287 667h-60z" />
    <glyph glyph-name="summmation" 
d="M283 343l-47 47l-9 -10l47 -47l-47 -47l9 -9l47 47l47 -47l10 9l-47 47l47 47l-10 10z" />
    </font>
</defs>
</svg>
